<svg version="1" xmlns="http://www.w3.org/2000/svg" width="682.667" height="682.667" viewBox="0 0 512.000000 512.000000"><path d="M172 76.8c-3 .8-6.3 1.5-7.2 1.5-.9.1-1.4.5-1.2.9.3.4 0 .8-.6.8-3.4 0-19.2 14-25.5 22.5-1.7 2.2-3.2 4.2-3.5 4.5-.7.7-6 8.7-8.2 12.5-2.4 3.9-18.2 35.7-18.5 37-.1.5-2.7 7.5-5.8 15.5-3.1 8-7.7 20.8-10.2 28.5-4.5 14-13.3 45.1-13.3 47.1 0 3.1 9.5 10.3 21.5 16.2 12.6 6.2 39.6 14.8 56 17.7 10.5 1.8 20.6 3.5 24.5 4 2.5.3 5.6.8 7 1 1.4.3 5.4.7 9 1.1 36.5 3.5 67.6 3.7 111 .9 7.2-.5 30.6-3.5 38-5 2.3-.5 5.1-.9 11-1.9 13.2-2.2 42.7-11.2 54.6-16.7 12.4-5.8 23.4-14.1 23.4-17.8 0-5.6-16.9-59-25.5-80.8-6-15.2-21.9-47.8-24.5-50.3-.3-.3-2.8-3.9-5.5-8-5.7-8.4-17-20.2-24-24.8-8.2-5.4-15-7.5-24.5-7.5-14.1 0-24.9 5.6-42.6 22-15.3 14-16.3 14.9-20.6 17.1-12 6.5-20.2 3.4-39.5-14.4-14.4-13.4-17.8-16-26.1-20.3-8.9-4.5-20.1-5.8-29.2-3.3z"/><path d="M59.5 226.2C36.1 239.3 13.2 262.7 6 281 1.3 292.8.5 296.9.6 310c.1 32.6 22.6 61.5 66.9 86 7.2 3.9 13 7.1 13 7 0-.1 1.8.5 4 1.5C100 411 113.4 416 123 418.6c37.3 10.3 60.7 14.3 100 17.1 19.1 1.3 68.6.6 82-1.2 6.3-.9 15.6-1.9 16.1-1.7.3 0 4.4-.6 9-1.4 4.6-.8 10-1.7 11.9-2 1.9-.3 5.8-.9 8.6-1.5 2.8-.5 6.3-1.2 7.8-1.5 7.1-1.3 30.3-7.6 41.3-11.3 60.4-20.2 100.2-52.4 110-89.1 2.6-10 2.4-27.5-.6-36.5-5.7-17.5-15.6-31.5-32.7-46.3-4.8-4.2-19.8-14.8-24-17-2.2-1.2-2.2-1.1-.8 3.4.7 2.4 1.6 4.9 1.9 5.4.3.5.9 2.8 1.5 5.2.5 2.4 1.4 6.3 2 8.8.7 2.5 1.3 5.4 1.6 6.5.2 1.1 1.5 7.2 3 13.5 1.4 6.3 3.5 15.5 4.5 20.5 1.1 4.9 2.2 10.1 2.5 11.5.9 4.3.4 12.5-1.2 18.5C461.3 343 438 362 399.3 375c-8.9 2.9-34.2 9.3-41.3 10.4-1.9.3-7.8 1.2-13 2-9.4 1.4-16.7 2.4-24.5 3.2-2.2.2-6.2.6-9 .9-26.5 2.7-79.9 2.8-111.5.1-17.1-1.5-49-6.4-60-9.2-.8-.2-4.4-1-8-1.8-3.6-.8-11.2-3-17-4.9-27.6-9.1-42.9-17.4-56.1-30.7-10.7-10.9-16.1-22.8-16.1-35.5 0-3.9 3.9-24.7 6.8-36.5.2-.8 1.3-5.6 2.4-10.5 3.7-15.9 5.9-24.9 7.9-31.3 1.1-3.4 1.8-6.2 1.8-6.2-.1 0-1.1.6-2.2 1.2z"/><path d="M439.5 272.9c-.6.6-4.7 3.2-9.3 6-14.9 8.9-46.7 19.8-68.7 23.5-1.6.3-6.7 1.2-11.2 2-4.5.8-10.8 1.8-14 2.2-3.2.3-6.5.8-7.4.9-.9.2-5.2.6-9.5 1s-8.8.9-9.9 1.1c-12.7 2.5-92.5 2.4-107.7-.1-1.3-.2-5.4-.6-9.3-1-6.3-.5-11.5-1.2-24-3-3.8-.6-8.7-1.5-20-3.6-6.4-1.3-21.6-4.9-23.5-5.6-.8-.3-2.3-.8-3.2-.9-2.2-.5-18.6-6.1-21.3-7.3-1.1-.5-5.1-2.3-8.8-4.1-3.8-1.7-9.8-4.9-13.3-7.2-3.6-2.2-6.6-3.9-6.8-3.7-.2.2-2 8.3-4 18-2.5 11.5-3.6 18.9-3.2 21.3.7 4.5 2.9 9.8 5.5 13.5 1.1 1.6 1.7 3.2 1.3 3.7-.4.5-.3.6.2.2.5-.4 3 1.2 5.7 3.6 11.8 10.6 33.2 20 61.9 27 4.3 1.1 34.3 6.6 39 7.2 3 .3 6.2.8 7 .9.9.2 4.7.6 8.5 1 3.9.3 8.6.8 10.5 1 23.3 2.5 78.7 2.5 104.5 0 10.6-1.1 19.9-2.2 26-3 4.2-.6 24.6-4.1 28-4.9 35.2-7.6 59.3-17.9 73.8-31.5 2.7-2.6 6.1-7.3 8-11 2.7-5.5 3.2-7.6 3-12.6-.3-8.3-6.5-35.9-7.8-34.6z"/></svg>